<svg version="1.1" xmlns="http://www.w3.org/2000/svg" xmlns:xlink="http://www.w3.org/1999/xlink" width="23.89007" height="41.94054" viewBox="0,0,23.89007,41.94054"><g transform="translate(-227.71082,-146.83308)"><g data-paper-data="{&quot;isPaintingLayer&quot;:true}" fill="none" fill-rule="nonzero" stroke="#ffffff" stroke-linecap="butt" stroke-linejoin="miter" stroke-miterlimit="10" stroke-dasharray="" stroke-dashoffset="0" style="mix-blend-mode: normal"><path d="M229.64914,187.52362v-15.04723h20.70175v15.04723z" stroke-width="2.5"/><path d="M229.62747,172.4677v-6.02564h6.66666v6.02564z" stroke-width="2.5"/><path d="M241.55055,171.69847v-11.92308h6.66666v11.92308z" stroke-width="2.5"/><path d="M231.29416,160.99334c0,-1.87635 1.52108,-3.39744 3.39744,-3.39744c1.87635,0 3.39744,1.52108 3.39744,3.39744c0,1.87635 -1.52109,3.39744 -3.39744,3.39744c-1.87635,0 -3.39744,-1.52108 -3.39744,-3.39744z" stroke-width="0.5"/><path d="M231.67877,156.57026c0,-1.62853 1.32019,-2.94872 2.94872,-2.94872c1.62853,0 2.94872,1.32019 2.94872,2.94872c0,1.62853 -1.32019,2.94872 -2.94872,2.94872c-1.62853,0 -2.94872,-1.32019 -2.94872,-2.94872z" stroke-width="0.5"/><path d="M228.21724,153.36513c0,-2.549 2.06638,-4.61539 4.61539,-4.61539c2.549,0 4.61539,2.06638 4.61539,4.61539c0,2.549 -2.06638,4.61539 -4.61539,4.61539c-2.549,0 -4.61539,-2.06638 -4.61539,-4.61539z" stroke-width="0.5"/><path d="M227.96083,157.4036c0,-2.37199 1.92288,-4.29487 4.29487,-4.29487c2.37199,0 4.29487,1.92288 4.29487,4.29487c0,2.37199 -1.92288,4.29487 -4.29487,4.29487c-2.37199,0 -4.29487,-1.92288 -4.29487,-4.29487z" stroke-width="0.5"/><path d="M241.29416,155.67282c0,-1.27451 1.03319,-2.30769 2.30769,-2.30769c1.27451,0 2.30769,1.03319 2.30769,2.30769c0,1.27451 -1.03319,2.30769 -2.30769,2.30769c-1.27451,0 -2.30769,-1.03319 -2.30769,-2.30769z" stroke-width="0.5"/><path d="M241.80698,153.68565c0,-1.66394 1.34888,-3.01282 3.01282,-3.01282c1.66394,0 3.01283,1.34888 3.01283,3.01282c0,1.66394 -1.34889,3.01282 -3.01283,3.01282c-1.66394,0 -3.01282,-1.34888 -3.01282,-3.01282z" stroke-width="0.5"/><path d="M241.42233,154.9036c0,-1.91175 1.54979,-3.46154 3.46154,-3.46154c1.91175,0 3.46154,1.54978 3.46154,3.46154c0,1.91175 -1.54978,3.46153 -3.46154,3.46153c-1.91175,0 -3.46154,-1.54978 -3.46154,-3.46153z" stroke-width="0.5"/><path d="M239.11466,151.69847c0,-2.549 2.06638,-4.61539 4.61539,-4.61539c2.549,0 4.61538,2.06638 4.61538,4.61539c0,2.549 -2.06638,4.61539 -4.61538,4.61539c-2.549,0 -4.61539,-2.06638 -4.61539,-4.61539z" stroke-width="0.5"/><path d="M235.11484,180.00001c0,-2.69801 2.18717,-4.88518 4.88518,-4.88518c2.69801,0 4.88518,2.18717 4.88518,4.88518c0,2.69801 -2.18717,4.88518 -4.88518,4.88518c-2.69801,0 -4.88518,-2.18717 -4.88518,-4.88518z" stroke-width="0.5"/><path d="M237.31335,178.22233c0,0.57688 0.33247,0.72314 -0.20891,0.72314c-0.54138,0 -0.75527,0.46439 -0.75527,-0.11249c0,-0.57688 0.43887,-1.04453 0.98025,-1.04453c0.54138,0 -0.01607,-0.143 -0.01607,0.43388z" stroke-width="0.5"/><path d="M240.18947,181.62731c0,0.57688 0.45509,0.67409 -0.08628,0.67409c-0.54138,0 -0.60813,-0.0261 -0.60813,-0.60298c0,-0.57688 0.69441,-0.64799 0.69441,-0.07111z" stroke-width="0.5"/><path d="M243.68157,178.11655c-0.52445,0.24029 -0.42327,0.69451 -0.64877,0.20233c-0.2255,-0.49218 -0.22957,-0.56373 0.29488,-0.80402c0.52445,-0.24029 0.87834,0.3614 0.35389,0.60169z" stroke-width="0.5"/><path d="M240.33282,178.91126c-0.52445,0.24029 -1.06091,0.40022 -1.2864,-0.09196c-0.2255,-0.49218 -0.22957,-0.56373 0.29488,-0.80402c0.52445,-0.24029 1.51598,0.65569 0.99153,0.89598z" stroke-width="0.5"/><path d="M242.28549,181.86834c-0.13577,-0.03908 -0.56713,0.87448 -0.64376,0.70723c-0.2255,-0.49218 0.90753,-0.63131 0.64376,-0.70723z" stroke-width="0.5"/><path d="M237.85981,183.93395c-0.29848,-0.13026 -0.57028,-0.30285 -0.46619,-0.63182c0.10409,-0.32897 0.13042,-0.36364 0.4289,-0.23338c0.29848,0.13026 0.33577,0.99545 0.03729,0.8652z" stroke-width="0.5"/><path d="M237.83407,181.22386c-0.12093,-0.37105 -0.1761,-0.79744 0.2473,-1.28197c0.4234,-0.48453 0.48107,-0.52748 0.60201,-0.15643c0.12093,0.37105 -0.72838,1.80945 -0.84931,1.4384z" stroke-width="0.5"/><path d="M238.91753,183.50505c0.36022,-0.15016 0.78085,-0.23916 1.29761,0.14422c0.51676,0.38339 0.56418,0.43745 0.20397,0.5876c-0.36022,0.15016 -1.86179,-0.58167 -1.50158,-0.73183z" stroke-width="0.5"/><path d="M241.67296,179.973c-0.52445,0.48049 -0.42327,1.38879 -0.64877,0.4046c-0.2255,-0.98419 -0.22957,-1.12728 0.29488,-1.60777c0.52445,-0.48049 0.87834,0.72268 0.35389,1.20317z" stroke-width="0.5"/><path d="M244.13706,180.8636c-0.03635,0.57573 -0.14917,1.12403 -0.68947,1.08992c-0.5403,-0.03411 -0.60528,-0.06437 -0.56892,-0.6401c0.03635,-0.57573 1.29475,-1.02555 1.2584,-0.44982z" stroke-width="0.5"/><path d="M241.14589,176.96118c-0.54292,-0.45952 -1.43115,-0.24434 -0.48335,-0.59243c0.9478,-0.34808 1.08922,-0.37021 1.63215,0.08931c0.28116,0.23797 -0.30829,0.16881 -0.61541,0.29041c-0.28594,0.11321 -0.27162,0.43425 -0.53338,0.21271z" stroke-width="0.5"/><path d="M236.02931,181.45999c-0.32393,-0.47734 -0.75509,-0.30223 -0.30712,-0.60623c0.44797,-0.304 0.51786,-0.31988 0.84179,0.15746c0.32393,0.47734 -0.21074,0.92611 -0.53467,0.44877z" stroke-width="0.5"/><path d="M239.19925,176.1151c-0.19689,0.2594 -0.50221,0.9734 -0.79741,0.79477c-0.2952,-0.17864 -0.91128,-0.06525 -0.71439,-0.32466c0.19689,-0.2594 1.70869,-0.72951 1.5118,-0.47011z" stroke-width="0.5"/></g></g></svg>