<svg version="1.1" xmlns="http://www.w3.org/2000/svg" xmlns:xlink="http://www.w3.org/1999/xlink" width="78.65925" height="78.65924" viewBox="0,0,78.65925,78.65924"><g transform="translate(-200.67038,-140.67039)"><g data-paper-data="{&quot;isPaintingLayer&quot;:true}" fill-rule="nonzero" stroke="none" stroke-linecap="butt" stroke-linejoin="miter" stroke-miterlimit="10" stroke-dasharray="" stroke-dashoffset="0" style="mix-blend-mode: normal"><path d="M200.67039,180.00001c0,-21.72116 17.60847,-39.32962 39.32962,-39.32962c21.72116,0 39.32963,17.60847 39.32963,39.32962c0,21.72116 -17.60847,39.32962 -39.32963,39.32962c-21.72116,0 -39.32962,-17.60847 -39.32962,-39.32962z" fill="#945300" stroke-width="NaN"/><path d="M214.82578,171.25804c0,4.64433 2.67666,5.82182 -1.68186,5.82182c-4.35852,0 -6.08057,3.73871 -6.08057,-0.90562c0,-4.64433 3.53328,-8.40929 7.8918,-8.40929c4.35852,0 -0.12937,-1.15123 -0.12937,3.49309z" fill="#583200" stroke-width="0"/><path d="M234.43651,194.62018c0,4.64433 3.66387,5.42694 -0.69465,5.42694c-4.35852,0 -4.89592,-0.21014 -4.89592,-4.85447c0,-4.64433 5.59056,-5.2168 5.59056,-0.57247z" fill="#583200" stroke-width="0"/><path d="M269.63955,164.83672c-4.22226,1.93449 -3.40764,5.59138 -5.22309,1.62895c-1.81545,-3.96243 -1.84824,-4.53851 2.37402,-6.47301c4.22226,-1.93449 7.07133,2.90956 2.84907,4.84406z" fill="#583200" stroke-width="0"/><path d="M241.66669,166.67764c-4.22226,1.93449 -8.54114,3.22208 -10.35659,-0.74035c-1.81545,-3.96243 -1.84825,-4.53851 2.37401,-6.47301c4.22226,-1.93449 12.20484,5.27887 7.98258,7.21336z" fill="#583200" stroke-width="0"/><path d="M263.0544,208.00702c-2.78746,1.27712 -2.85284,-1.874 -4.9764,-2.48525c-1.09307,-0.31463 -4.76327,3.0914 -5.38019,1.7449c-1.81545,-3.96243 -1.84825,-4.53851 2.37401,-6.47301c4.22226,-1.93449 12.20484,5.27887 7.98258,7.21337z" fill="#583200" stroke-width="0"/><path d="M263.9081,176.4802c-2.78746,1.27712 -1.86563,10.56486 -3.98919,9.95361c-1.09307,-0.31463 -4.56583,7.04025 -5.18275,5.69375c-1.81545,-3.96243 -8.25076,-13.79027 9.17194,-15.64736z" fill="#583200" stroke-width="0"/><path d="M222.76963,211.67143c-2.403,-1.04866 -4.59121,-2.43816 -3.75323,-5.08662c0.83797,-2.64846 1.05002,-2.92756 3.45301,-1.8789c2.403,1.04866 2.70322,8.01418 0.30022,6.96552z" fill="#583200" stroke-width="0"/><path d="M217.49899,196.94176c-0.97361,-2.98724 -1.41771,-6.42005 1.99099,-10.32087c3.4087,-3.90082 3.87303,-4.24662 4.84664,-1.25938c0.97361,2.98724 -5.86402,14.56749 -6.83764,11.58024z" fill="#583200" stroke-width="0"/><path d="M231.28514,208.21842c2.90003,-1.20887 6.28646,-1.92546 10.44683,1.16112c4.16037,3.08658 4.54211,3.52183 1.64209,4.73069c-2.90003,1.20887 -14.98894,-4.68295 -12.08891,-5.89181z" fill="#583200" stroke-width="0"/><path d="M247.39252,190.92206c-4.22226,3.86835 -3.40764,11.18089 -5.22309,3.25736c-1.81545,-7.92353 -1.84824,-9.07551 2.37402,-12.94386c4.22226,-3.86835 7.07134,5.81815 2.84907,9.6865z" fill="#583200" stroke-width="0"/><path d="M273.30659,186.95262c-0.29264,4.6351 -1.20096,9.04934 -5.55082,8.77471c-4.34986,-0.27463 -4.87295,-0.51822 -4.5803,-5.15331c0.29264,-4.6351 10.42377,-8.25649 10.13112,-3.62139z" fill="#583200" stroke-width="0"/><path d="M234.9244,177.70689c0,2.19655 3.5938,2.75346 -2.25814,2.75346c-5.85194,0 -8.16404,1.76824 -8.16404,-0.42831c0,-2.19655 4.74393,-3.97722 10.59588,-3.97722c5.85194,0 -0.1737,-0.54448 -0.1737,1.65207z" fill="#583200" stroke-width="0"/><path d="M249.22521,155.535c-4.37098,-3.69948 -11.52192,-1.96715 -3.89139,-4.7695c7.63054,-2.80236 8.76913,-2.98049 13.14011,0.71899c2.26357,1.91583 -2.48195,1.35905 -4.95456,2.33807c-2.30202,0.91147 -2.18676,3.4961 -4.29416,1.71245z" fill="#583200" stroke-width="0"/><path d="M208.03264,191.75407c-2.6079,-3.843 -6.07906,-2.43323 -2.47255,-4.88064c3.6065,-2.44741 4.16918,-2.57529 6.77707,1.26771c2.6079,3.843 -1.69662,7.45593 -4.30452,3.61293z" fill="#583200" stroke-width="0"/><path d="M223.90251,156.24681c0,4.64433 3.66387,5.42693 -0.69465,5.42693c-2.85558,0 -5.84793,4.45097 -6.34656,3.08262c-0.26244,-0.72018 1.45065,-6.3356 1.45065,-7.93709c0,-4.64433 5.59056,-5.21679 5.59056,-0.57247z" fill="#583200" stroke-width="0"/><path d="M221.31544,174.6335c-0.19762,-2.61439 0.00647,-5.19844 2.73922,-5.69712c2.73274,-0.49868 3.07862,-0.44188 3.27624,2.17251c0.19762,2.61439 -5.81784,6.13901 -6.01546,3.52462z" fill="#583200" stroke-width="0"/><path d="M240.64196,144.67276c-1.58512,2.08841 -4.04321,7.83666 -6.41982,6.3985c-2.37661,-1.43816 -7.33653,-0.52532 -5.75141,-2.61374c1.58512,-2.08841 13.75635,-5.87318 12.17123,-3.78476z" fill="#583200" stroke-width="0"/><path d="M260.84501,168.23233c-1.58512,2.08841 2.1739,1.56955 -0.64296,3.33893c-1.10706,-0.66992 -8.43792,-0.47286 -10.88769,-1.44161c-2.80931,-1.11093 1.8692,-4.10487 2.71594,-5.22047c0.64996,-0.85634 2.29003,0.96376 4.82153,0.05885c3.6423,-1.30197 4.92834,2.03222 3.99318,3.2643z" fill="#583200" stroke-width="0"/></g></g></svg>