<svg version="1.1" xmlns="http://www.w3.org/2000/svg" xmlns:xlink="http://www.w3.org/1999/xlink" viewBox="0 0 171 171"><g transform="translate(2.49379,2.49379) scale(0.971,0.971)"><g fill="none" fill-rule="nonzero" stroke="none" stroke-width="none" stroke-linecap="butt" stroke-linejoin="none" stroke-miterlimit="10" stroke-dasharray="" stroke-dashoffset="0" font-family="none" font-weight="none" font-size="none" text-anchor="none" style="mix-blend-mode: normal"><g fill="#ffffff" stroke="#000000" stroke-width="5" stroke-linejoin="round"><path d="M81.16,110.86c-1.58,1.21333 -3.58333,2.05667 -6.01,2.53c-2.42,0.47333 -5,0.71 -7.74,0.71c-3.32,0 -6.42667,-0.56667 -9.32,-1.7c-2.9,-1.13333 -5.42667,-2.85667 -7.58,-5.17c-2.16,-2.32 -3.87333,-5.28333 -5.14,-8.89c-1.26667,-3.60667 -1.9,-7.88667 -1.9,-12.84c0,-5.16 0.7,-9.54333 2.1,-13.15c1.39333,-3.61333 3.23667,-6.56333 5.53,-8.85c2.28667,-2.29333 4.85333,-3.96667 7.7,-5.02c2.84667,-1.05333 5.74333,-1.58 8.69,-1.58c3.16,0 5.74,0.17333 7.74,0.52c2,0.34 3.71333,0.8 5.14,1.38l-1.58,5.76c-2.52667,-1.20667 -6.13667,-1.81 -10.83,-1.81c-2.15333,0 -4.28333,0.39333 -6.39,1.18c-2.10667,0.79333 -3.99,2.08333 -5.65,3.87c-1.66,1.79333 -2.99,4.14 -3.99,7.04c-1,2.89333 -1.5,6.44667 -1.5,10.66c0,3.79333 0.47333,7.11 1.42,9.95c0.94667,2.84667 2.25,5.21667 3.91,7.11c1.66,1.9 3.60667,3.32333 5.84,4.27c2.24,0.94667 4.67667,1.42 7.31,1.42c2.37333,0 4.44,-0.23667 6.2,-0.71c1.76667,-0.47333 3.25667,-1.08 4.47,-1.82zM120.66,113.15l-5.69,-15.33h-20.38l-5.53,15.33h-6.48l20.93,-56.17h3.01l21.01,56.17zM102.8,75.47l-6.08,16.67h16.27l-6.16,-16.83l-1.97,-8.38h-0.08z"></path></g><g fill="#000000" stroke="#000000" stroke-width="5" stroke-linejoin="round"><path d="M156.75,85.5c0,39.2659 -31.9841,71.25 -71.25,71.25c-39.2659,0 -71.25,-31.9841 -71.25,-71.25c0,-39.2659 31.9841,-71.25 71.25,-71.25c39.2659,0 71.25,31.9841 71.25,71.25zM28.5,85.5c0,31.56463 25.43538,57 57,57c31.56463,0 57,-25.43537 57,-57c0,-31.56462 -25.43537,-57 -57,-57c-31.56462,0 -57,25.43538 -57,57z"></path></g><path d="M0,171.98547v-171.98547h171.98547v171.98547z" fill="none" stroke="none" stroke-width="1" stroke-linejoin="miter"></path><g fill="#ffffff" stroke="none" stroke-width="1" stroke-linejoin="miter"><path d="M85.5,14.25c-39.2659,0 -71.25,31.9841 -71.25,71.25c0,39.2659 31.9841,71.25 71.25,71.25c39.2659,0 71.25,-31.9841 71.25,-71.25c0,-39.2659 -31.9841,-71.25 -71.25,-71.25zM85.5,28.5c31.56463,0 57,25.43538 57,57c0,31.56463 -25.43537,57 -57,57c-31.56462,0 -57,-25.43537 -57,-57c0,-31.56462 25.43538,-57 57,-57z"></path></g><g fill="#ffffff" stroke="none" stroke-width="1" stroke-linejoin="miter"><path d="M79.58,105.72l1.58,5.14c-1.58,1.21333 -3.58333,2.05667 -6.01,2.53c-2.42,0.47333 -5,0.71 -7.74,0.71v0c-3.32,0 -6.42667,-0.56667 -9.32,-1.7c-2.9,-1.13333 -5.42667,-2.85667 -7.58,-5.17c-2.16,-2.32 -3.87333,-5.28333 -5.14,-8.89c-1.26667,-3.60667 -1.9,-7.88667 -1.9,-12.84v0c0,-5.16 0.7,-9.54333 2.1,-13.15c1.39333,-3.61333 3.23667,-6.56333 5.53,-8.85c2.28667,-2.29333 4.85333,-3.96667 7.7,-5.02c2.84667,-1.05333 5.74333,-1.58 8.69,-1.58v0c3.16,0 5.74,0.17333 7.74,0.52c2,0.34 3.71333,0.8 5.14,1.38v0l-1.58,5.76c-2.52667,-1.20667 -6.13667,-1.81 -10.83,-1.81v0c-2.15333,0 -4.28333,0.39333 -6.39,1.18c-2.10667,0.79333 -3.99,2.08333 -5.65,3.87c-1.66,1.79333 -2.99,4.14 -3.99,7.04c-1,2.89333 -1.5,6.44667 -1.5,10.66v0c0,3.79333 0.47333,7.11 1.42,9.95c0.94667,2.84667 2.25,5.21667 3.91,7.11c1.66,1.9 3.60667,3.32333 5.84,4.27c2.24,0.94667 4.67667,1.42 7.31,1.42v0c2.37333,0 4.44,-0.23667 6.2,-0.71c1.76667,-0.47333 3.25667,-1.08 4.47,-1.82zM120.66,113.15l-5.69,-15.33h-20.38l-5.53,15.33h-6.48l20.93,-56.17h3.01l21.01,56.17zM102.8,75.47l-6.08,16.67h16.27l-6.16,-16.83l-1.97,-8.38h-0.08z"></path></g><path d="" fill="none" stroke="none" stroke-width="1" stroke-linejoin="miter"></path><path d="" fill="none" stroke="none" stroke-width="1" stroke-linejoin="miter"></path><path d="" fill="none" stroke="none" stroke-width="1" stroke-linejoin="miter"></path><path d="" fill="none" stroke="none" stroke-width="1" stroke-linejoin="miter"></path></g></g></svg>