<svg version="1.1" xmlns="http://www.w3.org/2000/svg" xmlns:xlink="http://www.w3.org/1999/xlink" width="43.94546" height="42.39364" viewBox="0,0,43.94546,42.39364"><g transform="translate(-217.90574,-158.71906)"><g data-paper-data="{&quot;isPaintingLayer&quot;:true}" fill="none" fill-rule="nonzero" stroke="#ffffff" stroke-width="4.5" stroke-linecap="butt" stroke-linejoin="miter" stroke-miterlimit="10" stroke-dasharray="" stroke-dashoffset="0" style="mix-blend-mode: normal"><path d="M251.79204,198.56368c-2.80422,1.98311 -12.08203,-6.54722 -12.08203,-6.54722c0,0 -9.49113,8.3001 -12.24546,6.24517c-2.75655,-2.05469 2.49217,-13.51802 2.49217,-13.51802c0,0 -10.82518,-6.4624 -9.72205,-9.71649c1.10296,-3.2565 13.62543,-1.80666 13.62543,-1.80666c0,0 2.79821,-12.29169 6.23436,-12.2513c3.44095,0.04229 5.93282,12.40207 5.93282,12.40207c0,0 12.55491,-1.13733 13.57393,2.14587c1.02573,3.28047 -9.95894,9.47138 -9.95894,9.47138c0,0 4.96096,11.59158 2.14978,13.5752z"/></g></g></svg>